%TF.GenerationSoftware,KiCad,Pcbnew,(5.99.0-10539-g7356f9568d)*%
%TF.CreationDate,2021-05-12T00:16:57+03:00*%
%TF.ProjectId,keyboard,6b657962-6f61-4726-942e-6b696361645f,rev?*%
%TF.SameCoordinates,Original*%
%TF.FileFunction,Paste,Bot*%
%TF.FilePolarity,Positive*%
%FSLAX46Y46*%
G04 Gerber Fmt 4.6, Leading zero omitted, Abs format (unit mm)*
G04 Created by KiCad (PCBNEW (5.99.0-10539-g7356f9568d)) date 2021-05-12 00:16:57*
%MOMM*%
%LPD*%
G01*
G04 APERTURE LIST*
G04 Aperture macros list*
%AMRoundRect*
0 Rectangle with rounded corners*
0 $1 Rounding radius*
0 $2 $3 $4 $5 $6 $7 $8 $9 X,Y pos of 4 corners*
0 Add a 4 corners polygon primitive as box body*
4,1,4,$2,$3,$4,$5,$6,$7,$8,$9,$2,$3,0*
0 Add four circle primitives for the rounded corners*
1,1,$1+$1,$2,$3*
1,1,$1+$1,$4,$5*
1,1,$1+$1,$6,$7*
1,1,$1+$1,$8,$9*
0 Add four rect primitives between the rounded corners*
20,1,$1+$1,$2,$3,$4,$5,0*
20,1,$1+$1,$4,$5,$6,$7,0*
20,1,$1+$1,$6,$7,$8,$9,0*
20,1,$1+$1,$8,$9,$2,$3,0*%
%AMRotRect*
0 Rectangle, with rotation*
0 The origin of the aperture is its center*
0 $1 length*
0 $2 width*
0 $3 Rotation angle, in degrees counterclockwise*
0 Add horizontal line*
21,1,$1,$2,0,0,$3*%
G04 Aperture macros list end*
%ADD10R,1.300000X0.700000*%
%ADD11RoundRect,0.050000X-0.150000X-0.725000X0.150000X-0.725000X0.150000X0.725000X-0.150000X0.725000X0*%
%ADD12RoundRect,0.050000X-0.300000X-0.725000X0.300000X-0.725000X0.300000X0.725000X-0.300000X0.725000X0*%
%ADD13RotRect,0.400000X1.900000X135.000000*%
%ADD14RoundRect,0.062500X-0.380070X0.291682X0.291682X-0.380070X0.380070X-0.291682X-0.291682X0.380070X0*%
%ADD15RoundRect,0.062500X-0.380070X-0.291682X-0.291682X-0.380070X0.380070X0.291682X0.291682X0.380070X0*%
%ADD16RoundRect,0.250000X-0.388909X0.000000X0.000000X-0.388909X0.388909X0.000000X0.000000X0.388909X0*%
%ADD17R,1.800000X1.100000*%
%ADD18RoundRect,0.135000X0.135000X0.185000X-0.135000X0.185000X-0.135000X-0.185000X0.135000X-0.185000X0*%
%ADD19RoundRect,0.135000X-0.135000X-0.185000X0.135000X-0.185000X0.135000X0.185000X-0.135000X0.185000X0*%
%ADD20RoundRect,0.135000X0.226274X0.035355X0.035355X0.226274X-0.226274X-0.035355X-0.035355X-0.226274X0*%
%ADD21RoundRect,0.135000X0.035355X-0.226274X0.226274X-0.035355X-0.035355X0.226274X-0.226274X0.035355X0*%
%ADD22RoundRect,0.135000X0.185000X-0.135000X0.185000X0.135000X-0.185000X0.135000X-0.185000X-0.135000X0*%
%ADD23RoundRect,0.135000X-0.185000X0.135000X-0.185000X-0.135000X0.185000X-0.135000X0.185000X0.135000X0*%
%ADD24R,1.400000X1.200000*%
%ADD25R,1.400000X1.000000*%
%ADD26RoundRect,0.140000X0.170000X-0.140000X0.170000X0.140000X-0.170000X0.140000X-0.170000X-0.140000X0*%
%ADD27RoundRect,0.140000X0.140000X0.170000X-0.140000X0.170000X-0.140000X-0.170000X0.140000X-0.170000X0*%
%ADD28RoundRect,0.140000X-0.219203X-0.021213X-0.021213X-0.219203X0.219203X0.021213X0.021213X0.219203X0*%
%ADD29RoundRect,0.140000X0.219203X0.021213X0.021213X0.219203X-0.219203X-0.021213X-0.021213X-0.219203X0*%
%ADD30RoundRect,0.140000X0.021213X-0.219203X0.219203X-0.021213X-0.021213X0.219203X-0.219203X0.021213X0*%
%ADD31R,1.200000X0.900000*%
G04 APERTURE END LIST*
D10*
X52270000Y-44040000D03*
X52270000Y-42140000D03*
D11*
X50550000Y-35282500D03*
X51050000Y-35282500D03*
X51550000Y-35282500D03*
X50050000Y-35282500D03*
X52050000Y-35282500D03*
X49550000Y-35282500D03*
X52550000Y-35282500D03*
X49050000Y-35282500D03*
D12*
X48350000Y-35282500D03*
X53250000Y-35282500D03*
X47575000Y-35282500D03*
X54025000Y-35282500D03*
D13*
X62998528Y-63118528D03*
X62150000Y-62270000D03*
X61301472Y-61421472D03*
D14*
X50850062Y-67055534D03*
X51203616Y-66701981D03*
X51557169Y-66348427D03*
X51910722Y-65994874D03*
X52264276Y-65641321D03*
X52617829Y-65287767D03*
X52971383Y-64934214D03*
X53324936Y-64580660D03*
X53678489Y-64227107D03*
X54032043Y-63873554D03*
X54385596Y-63520000D03*
D15*
X55570000Y-63520000D03*
X55923553Y-63873554D03*
X56277107Y-64227107D03*
X56630660Y-64580660D03*
X56984213Y-64934214D03*
X57337767Y-65287767D03*
X57691320Y-65641321D03*
X58044874Y-65994874D03*
X58398427Y-66348427D03*
X58751980Y-66701981D03*
X59105534Y-67055534D03*
D14*
X59105534Y-68239938D03*
X58751980Y-68593491D03*
X58398427Y-68947045D03*
X58044874Y-69300598D03*
X57691320Y-69654151D03*
X57337767Y-70007705D03*
X56984213Y-70361258D03*
X56630660Y-70714812D03*
X56277107Y-71068365D03*
X55923553Y-71421918D03*
X55570000Y-71775472D03*
D15*
X54385596Y-71775472D03*
X54032043Y-71421918D03*
X53678489Y-71068365D03*
X53324936Y-70714812D03*
X52971383Y-70361258D03*
X52617829Y-70007705D03*
X52264276Y-69654151D03*
X51910722Y-69300598D03*
X51557169Y-68947045D03*
X51203616Y-68593491D03*
X50850062Y-68239938D03*
D16*
X52220082Y-67647736D03*
X53139320Y-66728497D03*
X54058559Y-65809258D03*
X54977798Y-64890020D03*
X53139320Y-68566975D03*
X54058559Y-67647736D03*
X54977798Y-66728497D03*
X55897037Y-65809258D03*
X54058559Y-69486214D03*
X54977798Y-68566975D03*
X55897037Y-67647736D03*
X56816276Y-66728497D03*
X54977798Y-70405452D03*
X55897037Y-69486214D03*
X56816276Y-68566975D03*
X57735514Y-67647736D03*
D17*
X65260000Y-46980000D03*
X59060000Y-50680000D03*
X65260000Y-50680000D03*
X59060000Y-46980000D03*
D18*
X46790000Y-37710000D03*
X45770000Y-37710000D03*
D19*
X53580000Y-37690000D03*
X54600000Y-37690000D03*
D20*
X57340624Y-62130624D03*
X56619376Y-61409376D03*
D21*
X55599376Y-73660624D03*
X56320624Y-72939376D03*
D22*
X50450000Y-59150000D03*
X50450000Y-58130000D03*
D23*
X51540000Y-58130000D03*
X51540000Y-59150000D03*
D24*
X49690000Y-40360000D03*
D25*
X49690000Y-38640000D03*
X51890000Y-38640000D03*
X51890000Y-40540000D03*
D26*
X52230000Y-62120000D03*
X52230000Y-61160000D03*
D27*
X53360000Y-60110000D03*
X52400000Y-60110000D03*
D28*
X49130589Y-68420589D03*
X49809411Y-69099411D03*
D29*
X54189411Y-73479411D03*
X53510589Y-72800589D03*
D30*
X60700589Y-68529411D03*
X61379411Y-67850589D03*
D31*
X44450000Y-42800000D03*
X44450000Y-46100000D03*
X68850000Y-40125000D03*
X68850000Y-43425000D03*
X87900000Y-40125000D03*
X87900000Y-43425000D03*
X106950000Y-40125000D03*
X106950000Y-43425000D03*
X126000000Y-40125000D03*
X126000000Y-43425000D03*
X145050000Y-40125000D03*
X145050000Y-43425000D03*
X164100000Y-40125000D03*
X164100000Y-43425000D03*
X183150000Y-40125000D03*
X183150000Y-43425000D03*
X202200000Y-40125000D03*
X202200000Y-43425000D03*
X221250000Y-40125000D03*
X221250000Y-43425000D03*
X240300000Y-40125000D03*
X240300000Y-43425000D03*
X257968750Y-40125000D03*
X257968750Y-43425000D03*
X46831250Y-61850000D03*
X46831250Y-65150000D03*
X73612500Y-59175000D03*
X73612500Y-62475000D03*
X92662500Y-59175000D03*
X92662500Y-62475000D03*
X111712500Y-59175000D03*
X111712500Y-62475000D03*
X130762500Y-59175000D03*
X130762500Y-62475000D03*
X149812500Y-59175000D03*
X149812500Y-62475000D03*
X168862500Y-59175000D03*
X168862500Y-62475000D03*
X187912500Y-59175000D03*
X187912500Y-62475000D03*
X206962500Y-59175000D03*
X206962500Y-62475000D03*
X226012500Y-59175000D03*
X226012500Y-62475000D03*
X250825000Y-59175000D03*
X250825000Y-62475000D03*
X51593750Y-81693750D03*
X51593750Y-84993750D03*
X83137500Y-78225000D03*
X83137500Y-81525000D03*
X102187500Y-78225000D03*
X102187500Y-81525000D03*
X121237500Y-78225000D03*
X121237500Y-81525000D03*
X140287500Y-78225000D03*
X140287500Y-81525000D03*
X159337500Y-78225000D03*
X159337500Y-81525000D03*
X178387500Y-78225000D03*
X178387500Y-81525000D03*
X197437500Y-78225000D03*
X197437500Y-81525000D03*
X221250000Y-78225000D03*
X221250000Y-81525000D03*
X240300000Y-78225000D03*
X240300000Y-81525000D03*
X257968750Y-78225000D03*
X257968750Y-81525000D03*
X53181250Y-97275000D03*
X53181250Y-100575000D03*
X78375000Y-97275000D03*
X78375000Y-100575000D03*
X100806250Y-97275000D03*
X100806250Y-100575000D03*
X126000000Y-97275000D03*
X126000000Y-100575000D03*
X161150000Y-97240000D03*
X161150000Y-100540000D03*
X197437500Y-97275000D03*
X197437500Y-100575000D03*
X221250000Y-97275000D03*
X221250000Y-100575000D03*
X240300000Y-97275000D03*
X240300000Y-100575000D03*
X257968750Y-97275000D03*
X257968750Y-100575000D03*
M02*
