%TF.GenerationSoftware,KiCad,Pcbnew,(5.99.0-10539-g7356f9568d)*%
%TF.CreationDate,2021-05-12T00:16:57+03:00*%
%TF.ProjectId,keyboard,6b657962-6f61-4726-942e-6b696361645f,rev?*%
%TF.SameCoordinates,Original*%
%TF.FileFunction,Legend,Top*%
%TF.FilePolarity,Positive*%
%FSLAX46Y46*%
G04 Gerber Fmt 4.6, Leading zero omitted, Abs format (unit mm)*
G04 Created by KiCad (PCBNEW (5.99.0-10539-g7356f9568d)) date 2021-05-12 00:16:57*
%MOMM*%
%LPD*%
G01*
G04 APERTURE LIST*
G04 Aperture macros list*
%AMHorizOval*
0 Thick line with rounded ends*
0 $1 width*
0 $2 $3 position (X,Y) of the first rounded end (center of the circle)*
0 $4 $5 position (X,Y) of the second rounded end (center of the circle)*
0 Add line between two ends*
20,1,$1,$2,$3,$4,$5,0*
0 Add two circle primitives to create the rounded ends*
1,1,$1,$2,$3*
1,1,$1,$4,$5*%
G04 Aperture macros list end*
%ADD10C,1.750000*%
%ADD11C,3.987800*%
%ADD12HorizOval,2.300000X0.647898X0.694786X-0.647898X-0.694786X0*%
%ADD13HorizOval,2.300000X0.015701X0.299589X-0.015701X-0.299589X0*%
%ADD14O,1.100000X1.700000*%
%ADD15O,1.100000X2.200000*%
%ADD16C,0.750000*%
%ADD17C,3.048000*%
G04 APERTURE END LIST*
%LPC*%
D10*
X215423750Y-79375000D03*
X205263750Y-79375000D03*
D11*
X210343750Y-79375000D03*
D12*
X207193750Y-76125000D03*
D13*
X212868750Y-74575000D03*
D14*
X55120000Y-30187500D03*
X46480000Y-30187500D03*
D15*
X55120000Y-34367500D03*
X46480000Y-34367500D03*
D16*
X47910000Y-33837500D03*
X53690000Y-33837500D03*
D11*
X165131750Y-90170000D03*
X141255750Y-90170000D03*
X153193750Y-98425000D03*
D10*
X158273750Y-98425000D03*
D17*
X141255750Y-105410000D03*
X165131750Y-105410000D03*
D10*
X148113750Y-98425000D03*
D12*
X150043750Y-95150000D03*
D13*
X155718750Y-93600000D03*
D10*
X40957500Y-98425000D03*
X51117500Y-98425000D03*
D11*
X46037500Y-98425000D03*
D12*
X42862500Y-95150000D03*
D13*
X48562500Y-93650000D03*
D10*
X88582500Y-98425000D03*
X98742500Y-98425000D03*
D11*
X93662500Y-98425000D03*
D12*
X90487500Y-95150000D03*
D13*
X96187500Y-93650000D03*
D10*
X248761250Y-60325000D03*
X238601250Y-60325000D03*
D11*
X243681250Y-60325000D03*
D12*
X240531250Y-57050000D03*
D13*
X246206250Y-55550000D03*
D10*
X53498750Y-79375000D03*
X43338750Y-79375000D03*
D11*
X48418750Y-79375000D03*
D12*
X45268750Y-76100000D03*
D13*
X50943750Y-74600000D03*
D11*
X41275000Y-41275000D03*
D10*
X46355000Y-41275000D03*
X36195000Y-41275000D03*
D12*
X38125000Y-38000000D03*
D13*
X43800000Y-36500000D03*
D11*
X60325000Y-41275000D03*
D10*
X65405000Y-41275000D03*
X55245000Y-41275000D03*
D12*
X57175000Y-38000000D03*
D13*
X62850000Y-36500000D03*
D11*
X79375000Y-41275000D03*
D10*
X84455000Y-41275000D03*
X74295000Y-41275000D03*
D12*
X76225000Y-38000000D03*
D13*
X81900000Y-36500000D03*
D11*
X98425000Y-41275000D03*
D10*
X103505000Y-41275000D03*
X93345000Y-41275000D03*
D12*
X95275000Y-38000000D03*
D13*
X100950000Y-36500000D03*
D11*
X117475000Y-41275000D03*
D10*
X122555000Y-41275000D03*
X112395000Y-41275000D03*
D12*
X114325000Y-38000000D03*
D13*
X120000000Y-36500000D03*
D11*
X136525000Y-41275000D03*
D10*
X141605000Y-41275000D03*
X131445000Y-41275000D03*
D12*
X133375000Y-38000000D03*
D13*
X139050000Y-36500000D03*
D11*
X155575000Y-41275000D03*
D10*
X160655000Y-41275000D03*
X150495000Y-41275000D03*
D12*
X152425000Y-38000000D03*
D13*
X158100000Y-36500000D03*
D11*
X174625000Y-41275000D03*
D10*
X179705000Y-41275000D03*
X169545000Y-41275000D03*
D12*
X171475000Y-38000000D03*
D13*
X177150000Y-36500000D03*
D11*
X193675000Y-41275000D03*
D10*
X198755000Y-41275000D03*
X188595000Y-41275000D03*
D12*
X190525000Y-38000000D03*
D13*
X196200000Y-36500000D03*
D11*
X212725000Y-41275000D03*
D10*
X217805000Y-41275000D03*
X207645000Y-41275000D03*
D12*
X209575000Y-38000000D03*
D13*
X215250000Y-36500000D03*
D11*
X231775000Y-41275000D03*
D10*
X236855000Y-41275000D03*
X226695000Y-41275000D03*
D12*
X228625000Y-38000000D03*
D13*
X234300000Y-36500000D03*
D11*
X250825000Y-41275000D03*
D10*
X255905000Y-41275000D03*
X245745000Y-41275000D03*
D12*
X247675000Y-38000000D03*
D13*
X253350000Y-36500000D03*
D11*
X65087500Y-60325000D03*
D10*
X70167500Y-60325000D03*
X60007500Y-60325000D03*
D12*
X61937500Y-57050000D03*
D13*
X67612500Y-55550000D03*
D11*
X84137500Y-60325000D03*
D10*
X89217500Y-60325000D03*
X79057500Y-60325000D03*
D12*
X80987500Y-57050000D03*
D13*
X86662500Y-55550000D03*
D11*
X103187500Y-60325000D03*
D10*
X108267500Y-60325000D03*
X98107500Y-60325000D03*
D12*
X100037500Y-57050000D03*
D13*
X105712500Y-55550000D03*
D11*
X122237500Y-60325000D03*
D10*
X127317500Y-60325000D03*
X117157500Y-60325000D03*
D12*
X119087500Y-57050000D03*
D13*
X124762500Y-55550000D03*
D11*
X141287500Y-60325000D03*
D10*
X146367500Y-60325000D03*
X136207500Y-60325000D03*
D12*
X138137500Y-57050000D03*
D13*
X143812500Y-55550000D03*
D11*
X160337500Y-60325000D03*
D10*
X165417500Y-60325000D03*
X155257500Y-60325000D03*
D12*
X157187500Y-57050000D03*
D13*
X162862500Y-55550000D03*
D11*
X179387500Y-60325000D03*
D10*
X184467500Y-60325000D03*
X174307500Y-60325000D03*
D12*
X176237500Y-57050000D03*
D13*
X181912500Y-55550000D03*
D11*
X198437500Y-60325000D03*
D10*
X203517500Y-60325000D03*
X193357500Y-60325000D03*
D12*
X195287500Y-57050000D03*
D13*
X200962500Y-55550000D03*
D11*
X217487500Y-60325000D03*
D10*
X222567500Y-60325000D03*
X212407500Y-60325000D03*
D12*
X214337500Y-57050000D03*
D13*
X220012500Y-55550000D03*
D11*
X74612500Y-79375000D03*
D10*
X79692500Y-79375000D03*
X69532500Y-79375000D03*
D12*
X71462500Y-76100000D03*
D13*
X77137500Y-74600000D03*
D11*
X93662500Y-79375000D03*
D10*
X98742500Y-79375000D03*
X88582500Y-79375000D03*
D12*
X90512500Y-76100000D03*
D13*
X96187500Y-74600000D03*
D11*
X112712500Y-79375000D03*
D10*
X117792500Y-79375000D03*
X107632500Y-79375000D03*
D12*
X109562500Y-76100000D03*
D13*
X115237500Y-74600000D03*
D11*
X131762500Y-79375000D03*
D10*
X136842500Y-79375000D03*
X126682500Y-79375000D03*
D12*
X128612500Y-76100000D03*
D13*
X134287500Y-74600000D03*
D11*
X150812500Y-79375000D03*
D10*
X155892500Y-79375000D03*
X145732500Y-79375000D03*
D12*
X147662500Y-76100000D03*
D13*
X153337500Y-74600000D03*
D11*
X169862500Y-79375000D03*
D10*
X174942500Y-79375000D03*
X164782500Y-79375000D03*
D12*
X166712500Y-76100000D03*
D13*
X172387500Y-74600000D03*
D11*
X188912500Y-79375000D03*
D10*
X193992500Y-79375000D03*
X183832500Y-79375000D03*
D12*
X185762500Y-76100000D03*
D13*
X191437500Y-74600000D03*
D11*
X231775000Y-79375000D03*
D10*
X236855000Y-79375000D03*
X226695000Y-79375000D03*
D12*
X228625000Y-76100000D03*
D13*
X234300000Y-74600000D03*
D11*
X250825000Y-79375000D03*
D10*
X255905000Y-79375000D03*
X245745000Y-79375000D03*
D12*
X247675000Y-76100000D03*
D13*
X253350000Y-74600000D03*
D11*
X69850000Y-98425000D03*
D10*
X74930000Y-98425000D03*
X64770000Y-98425000D03*
D12*
X66700000Y-95150000D03*
D13*
X72375000Y-93650000D03*
D11*
X117475000Y-98425000D03*
D10*
X122555000Y-98425000D03*
X112395000Y-98425000D03*
D12*
X114325000Y-95150000D03*
D13*
X120000000Y-93650000D03*
D11*
X188912500Y-98425000D03*
D10*
X193992500Y-98425000D03*
X183832500Y-98425000D03*
D12*
X185762500Y-95150000D03*
D13*
X191437500Y-93650000D03*
D11*
X212725000Y-98425000D03*
D10*
X217805000Y-98425000D03*
X207645000Y-98425000D03*
D12*
X209575000Y-95150000D03*
D13*
X215250000Y-93650000D03*
D11*
X231775000Y-98425000D03*
D10*
X236855000Y-98425000D03*
X226695000Y-98425000D03*
D12*
X228625000Y-95150000D03*
D13*
X234300000Y-93650000D03*
D11*
X250825000Y-98425000D03*
D10*
X255905000Y-98425000D03*
X245745000Y-98425000D03*
D12*
X247675000Y-95150000D03*
D13*
X253350000Y-93650000D03*
D10*
X48736250Y-60325000D03*
X38576250Y-60325000D03*
D11*
X43656250Y-60325000D03*
D12*
X40506250Y-57075000D03*
D13*
X46181250Y-55525000D03*
M02*
