%TF.GenerationSoftware,KiCad,Pcbnew,(5.99.0-10539-g7356f9568d)*%
%TF.CreationDate,2021-05-12T00:16:57+03:00*%
%TF.ProjectId,keyboard,6b657962-6f61-4726-942e-6b696361645f,rev?*%
%TF.SameCoordinates,Original*%
%TF.FileFunction,Profile,NP*%
%FSLAX46Y46*%
G04 Gerber Fmt 4.6, Leading zero omitted, Abs format (unit mm)*
G04 Created by KiCad (PCBNEW (5.99.0-10539-g7356f9568d)) date 2021-05-12 00:16:57*
%MOMM*%
%LPD*%
G01*
G04 APERTURE LIST*
%TA.AperFunction,Profile*%
%ADD10C,0.100000*%
%TD*%
G04 APERTURE END LIST*
D10*
X244475000Y-31750000D02*
X258762500Y-31750000D01*
X206375000Y-31750000D02*
X238125000Y-31750000D01*
X130175000Y-31750000D02*
X200025000Y-31750000D01*
X73025000Y-31750000D02*
X123825000Y-31750000D01*
X57150000Y-31750000D02*
X66675000Y-31750000D01*
X54768750Y-107950000D02*
X33337500Y-107950000D01*
X103187500Y-107950000D02*
X61118750Y-107950000D01*
X197643750Y-107950000D02*
X109537500Y-107950000D01*
X238125000Y-107950000D02*
X203993750Y-107950000D01*
X258762500Y-107950000D02*
X244475000Y-107950000D01*
X66675000Y-31750000D02*
G75*
G03*
X73025000Y-31750000I3175000J0D01*
G01*
X123825000Y-31750000D02*
G75*
G03*
X130175000Y-31750000I3175000J0D01*
G01*
X200025000Y-31750000D02*
G75*
G03*
X206375000Y-31750000I3175000J0D01*
G01*
X238125000Y-31750000D02*
G75*
G03*
X244475000Y-31750000I3175000J0D01*
G01*
X238125000Y-107950000D02*
G75*
G02*
X244475000Y-107950000I3175000J0D01*
G01*
X197643750Y-107950000D02*
G75*
G02*
X203993750Y-107950000I3175000J0D01*
G01*
X54768750Y-107950000D02*
G75*
G02*
X61118750Y-107950000I3175000J0D01*
G01*
X109537500Y-107950000D02*
G75*
G03*
X103187500Y-107950000I-3175000J0D01*
G01*
X33337500Y-31750000D02*
X44450000Y-31750000D01*
X31750000Y-106362500D02*
X31750000Y-33337500D01*
X260350000Y-33337500D02*
X260350000Y-106362500D01*
X260350000Y-33337500D02*
G75*
G03*
X258762500Y-31750000I-1587500J0D01*
G01*
X258762500Y-107950000D02*
G75*
G03*
X260350000Y-106362500I0J1587500D01*
G01*
X33337500Y-107950000D02*
G75*
G02*
X31750000Y-106362500I0J1587500D01*
G01*
X31750000Y-33337500D02*
G75*
G02*
X33337500Y-31750000I1587500J0D01*
G01*
X45243750Y-30162500D02*
X45243750Y-30956250D01*
X56356250Y-30162500D02*
X56356250Y-30956250D01*
X46831250Y-28575000D02*
X54768750Y-28575000D01*
X44450000Y-31750000D02*
G75*
G03*
X45243750Y-30956250I0J793750D01*
G01*
X57150000Y-31750000D02*
G75*
G02*
X56356250Y-30956250I0J793750D01*
G01*
X45243750Y-30162500D02*
G75*
G02*
X46831250Y-28575000I1587500J0D01*
G01*
X56356250Y-30162500D02*
G75*
G03*
X54768750Y-28575000I-1587500J0D01*
G01*
M02*
