M48
; DRILL file {KiCad (5.99.0-10539-g7356f9568d)} date Wed May 12 00:17:14 2021
; FORMAT={-:-/ absolute / inch / decimal}
; #@! TF.CreationDate,2021-05-12T00:17:14+03:00
; #@! TF.GenerationSoftware,Kicad,Pcbnew,(5.99.0-10539-g7356f9568d)
; #@! TF.FileFunction,NonPlated,1,2,NPTH
FMAT,2
INCH
; #@! TA.AperFunction,NonPlated,NPTH,ComponentDrill
T1C0.0256
; #@! TA.AperFunction,NonPlated,NPTH,ComponentDrill
T2C0.0689
; #@! TA.AperFunction,NonPlated,NPTH,ComponentDrill
T3C0.1200
; #@! TA.AperFunction,NonPlated,NPTH,ComponentDrill
T4C0.1570
%
G90
G05
T1
X1.8862Y-1.3322
X2.1138Y-1.3322
T2
X1.425Y-1.625
X1.5188Y-2.375
X1.6125Y-3.875
X1.7063Y-3.125
X1.825Y-1.625
X1.9187Y-2.375
X2.0125Y-3.875
X2.1062Y-3.125
X2.175Y-1.625
X2.3625Y-2.375
X2.55Y-3.875
X2.575Y-1.625
X2.7375Y-3.125
X2.7625Y-2.375
X2.925Y-1.625
X2.95Y-3.875
X3.1125Y-2.375
X3.1375Y-3.125
X3.325Y-1.625
X3.4875Y-3.125
X3.4875Y-3.875
X3.5125Y-2.375
X3.675Y-1.625
X3.8625Y-2.375
X3.8875Y-3.125
X3.8875Y-3.875
X4.075Y-1.625
X4.2375Y-3.125
X4.2625Y-2.375
X4.425Y-1.625
X4.425Y-3.875
X4.6125Y-2.375
X4.6375Y-3.125
X4.825Y-1.625
X4.825Y-3.875
X4.9875Y-3.125
X5.0125Y-2.375
X5.175Y-1.625
X5.3625Y-2.375
X5.3875Y-3.125
X5.575Y-1.625
X5.7375Y-3.125
X5.7625Y-2.375
X5.8312Y-3.875
X5.925Y-1.625
X6.1125Y-2.375
X6.1375Y-3.125
X6.2313Y-3.875
X6.325Y-1.625
X6.4875Y-3.125
X6.5125Y-2.375
X6.675Y-1.625
X6.8625Y-2.375
X6.8875Y-3.125
X7.075Y-1.625
X7.2375Y-3.125
X7.2375Y-3.875
X7.2625Y-2.375
X7.425Y-1.625
X7.6125Y-2.375
X7.6375Y-3.125
X7.6375Y-3.875
X7.825Y-1.625
X8.0125Y-2.375
X8.0812Y-3.125
X8.175Y-1.625
X8.175Y-3.875
X8.3625Y-2.375
X8.4812Y-3.125
X8.575Y-1.625
X8.575Y-3.875
X8.7625Y-2.375
X8.925Y-1.625
X8.925Y-3.125
X8.925Y-3.875
X9.325Y-1.625
X9.325Y-3.125
X9.325Y-3.875
X9.3937Y-2.375
X9.675Y-1.625
X9.675Y-3.125
X9.675Y-3.875
X9.7937Y-2.375
X10.075Y-1.625
X10.075Y-3.125
X10.075Y-3.875
T3
X5.5613Y-4.15
X6.5012Y-4.15
T4
X1.625Y-1.625
X1.7188Y-2.375
X1.8125Y-3.875
X1.9062Y-3.125
X2.375Y-1.625
X2.5625Y-2.375
X2.75Y-3.875
X2.9375Y-3.125
X3.125Y-1.625
X3.3125Y-2.375
X3.6875Y-3.125
X3.6875Y-3.875
X3.875Y-1.625
X4.0625Y-2.375
X4.4375Y-3.125
X4.625Y-1.625
X4.625Y-3.875
X4.8125Y-2.375
X5.1875Y-3.125
X5.375Y-1.625
X5.5613Y-3.55
X5.5625Y-2.375
X5.9375Y-3.125
X6.0312Y-3.875
X6.125Y-1.625
X6.3125Y-2.375
X6.5012Y-3.55
X6.6875Y-3.125
X6.875Y-1.625
X7.0625Y-2.375
X7.4375Y-3.125
X7.4375Y-3.875
X7.625Y-1.625
X7.8125Y-2.375
X8.2812Y-3.125
X8.375Y-1.625
X8.375Y-3.875
X8.5625Y-2.375
X9.125Y-1.625
X9.125Y-3.125
X9.125Y-3.875
X9.5938Y-2.375
X9.875Y-1.625
X9.875Y-3.125
X9.875Y-3.875
T0
M30
