M48
; DRILL file {KiCad (5.99.0-10539-g7356f9568d)} date Wed May 12 00:17:14 2021
; FORMAT={-:-/ absolute / inch / decimal}
; #@! TF.CreationDate,2021-05-12T00:17:14+03:00
; #@! TF.GenerationSoftware,Kicad,Pcbnew,(5.99.0-10539-g7356f9568d)
; #@! TF.FileFunction,Plated,1,2,PTH
FMAT,2
INCH
; #@! TA.AperFunction,Plated,PTH,ViaDrill
T1C0.0157
; #@! TA.AperFunction,Plated,PTH,ComponentDrill
T2C0.0236
; #@! TA.AperFunction,Plated,PTH,ComponentDrill
T3C0.0630
%
G90
G05
T1
X1.7228Y-2.0016
X1.8792Y-1.574
X1.9051Y-2.6669
X1.9543Y-2.5528
X1.9544Y-1.815
X1.965Y-1.6602
X1.9937Y-1.2949
X2.0864Y-1.8154
X2.0949Y-1.6051
X2.1Y-2.3268
X2.1524Y-2.4272
X2.1721Y-2.9315
X2.198Y-2.3685
X2.2906Y-2.3209
X2.2949Y-2.3736
X2.2976Y-2.4276
X2.3606Y-2.5539
X2.3752Y-2.4886
X2.4587Y-2.6949
X2.6012Y-2.5303
X2.6661Y-1.9161
X4.0929Y-2.9165
X4.7638Y-2.8642
X5.0606Y-3.3835
X5.4417Y-2.8437
X6.252Y-2.8642
X6.9587Y-2.8335
X7.7531Y-2.8224
X8.3362Y-2.7961
X8.7921Y-2.8181
X8.8482Y-3.2098
X8.9053Y-3.211
X9.3047Y-2.7827
T2
G00X1.8299Y-1.1767
M15
G01X1.8299Y-1.2003
M16
G05
G00X1.8299Y-1.3314
M15
G01X1.8299Y-1.3747
M16
G05
G00X2.1701Y-1.1767
M15
G01X2.1701Y-1.2003
M16
G05
G00X2.1701Y-1.3314
M15
G01X2.1701Y-1.3747
M16
G05
T3
G00X1.4782Y-1.5205
M15
G01X1.5238Y-1.4716
M16
G05
G00X1.5719Y-2.2715
M15
G01X1.6176Y-2.2226
M16
G05
G00X1.6647Y-3.7705
M15
G01X1.7103Y-3.7216
M16
G05
G00X1.724Y-1.4449
M15
G01X1.7248Y-1.4291
M16
G05
G00X1.7594Y-3.0205
M15
G01X1.8051Y-2.9716
M16
G05
G00X1.8177Y-2.1939
M15
G01X1.8186Y-2.1782
M16
G05
G00X1.9115Y-3.6949
M15
G01X1.9123Y-3.6791
M16
G05
G00X2.0052Y-2.9449
M15
G01X2.0061Y-2.9291
M16
G05
G00X2.2282Y-1.5205
M15
G01X2.2738Y-1.4716
M16
G05
G00X2.4157Y-2.2705
M15
G01X2.4613Y-2.2216
M16
G05
G00X2.474Y-1.4449
M15
G01X2.4748Y-1.4291
M16
G05
G00X2.6032Y-3.7705
M15
G01X2.6488Y-3.7216
M16
G05
G00X2.6615Y-2.1949
M15
G01X2.6623Y-2.1791
M16
G05
G00X2.7907Y-3.0205
M15
G01X2.8363Y-2.9716
M16
G05
G00X2.849Y-3.6949
M15
G01X2.8498Y-3.6791
M16
G05
G00X2.9782Y-1.5205
M15
G01X3.0238Y-1.4716
M16
G05
G00X3.0365Y-2.9449
M15
G01X3.0373Y-2.9291
M16
G05
G00X3.1657Y-2.2705
M15
G01X3.2113Y-2.2216
M16
G05
G00X3.224Y-1.4449
M15
G01X3.2248Y-1.4291
M16
G05
G00X3.4115Y-2.1949
M15
G01X3.4123Y-2.1791
M16
G05
G00X3.5397Y-3.7705
M15
G01X3.5853Y-3.7216
M16
G05
G00X3.5407Y-3.0205
M15
G01X3.5863Y-2.9716
M16
G05
G00X3.7282Y-1.5205
M15
G01X3.7738Y-1.4716
M16
G05
G00X3.7865Y-2.9449
M15
G01X3.7873Y-2.9291
M16
G05
G00X3.7865Y-3.6949
M15
G01X3.7873Y-3.6791
M16
G05
G00X3.9157Y-2.2705
M15
G01X3.9613Y-2.2216
M16
G05
G00X3.974Y-1.4449
M15
G01X3.9748Y-1.4291
M16
G05
G00X4.1615Y-2.1949
M15
G01X4.1623Y-2.1791
M16
G05
G00X4.2907Y-3.0205
M15
G01X4.3363Y-2.9716
M16
G05
G00X4.4782Y-1.5205
M15
G01X4.5238Y-1.4716
M16
G05
G00X4.4782Y-3.7705
M15
G01X4.5238Y-3.7216
M16
G05
G00X4.5365Y-2.9449
M15
G01X4.5373Y-2.9291
M16
G05
G00X4.6657Y-2.2705
M15
G01X4.7113Y-2.2216
M16
G05
G00X4.724Y-1.4449
M15
G01X4.7248Y-1.4291
M16
G05
G00X4.724Y-3.6949
M15
G01X4.7248Y-3.6791
M16
G05
G00X4.9115Y-2.1949
M15
G01X4.9123Y-2.1791
M16
G05
G00X5.0407Y-3.0205
M15
G01X5.0863Y-2.9716
M16
G05
G00X5.2282Y-1.5205
M15
G01X5.2738Y-1.4716
M16
G05
G00X5.2865Y-2.9449
M15
G01X5.2873Y-2.9291
M16
G05
G00X5.4157Y-2.2705
M15
G01X5.4613Y-2.2216
M16
G05
G00X5.474Y-1.4449
M15
G01X5.4748Y-1.4291
M16
G05
G00X5.6615Y-2.1949
M15
G01X5.6623Y-2.1791
M16
G05
G00X5.7907Y-3.0205
M15
G01X5.8363Y-2.9716
M16
G05
G00X5.8844Y-3.7705
M15
G01X5.9301Y-3.7216
M16
G05
G00X5.9782Y-1.5205
M15
G01X6.0238Y-1.4716
M16
G05
G00X6.0365Y-2.9449
M15
G01X6.0373Y-2.9291
M16
G05
G00X6.1302Y-3.6929
M15
G01X6.1311Y-3.6772
M16
G05
G00X6.1657Y-2.2705
M15
G01X6.2113Y-2.2216
M16
G05
G00X6.224Y-1.4449
M15
G01X6.2248Y-1.4291
M16
G05
G00X6.4115Y-2.1949
M15
G01X6.4123Y-2.1791
M16
G05
G00X6.5407Y-3.0205
M15
G01X6.5863Y-2.9716
M16
G05
G00X6.7282Y-1.5205
M15
G01X6.7738Y-1.4716
M16
G05
G00X6.7865Y-2.9449
M15
G01X6.7873Y-2.9291
M16
G05
G00X6.9157Y-2.2705
M15
G01X6.9613Y-2.2216
M16
G05
G00X6.974Y-1.4449
M15
G01X6.9748Y-1.4291
M16
G05
G00X7.1615Y-2.1949
M15
G01X7.1623Y-2.1791
M16
G05
G00X7.2907Y-3.0205
M15
G01X7.3363Y-2.9716
M16
G05
G00X7.2907Y-3.7705
M15
G01X7.3363Y-3.7216
M16
G05
G00X7.4782Y-1.5205
M15
G01X7.5238Y-1.4716
M16
G05
G00X7.5365Y-2.9449
M15
G01X7.5373Y-2.9291
M16
G05
G00X7.5365Y-3.6949
M15
G01X7.5373Y-3.6791
M16
G05
G00X7.6657Y-2.2705
M15
G01X7.7113Y-2.2216
M16
G05
G00X7.724Y-1.4449
M15
G01X7.7248Y-1.4291
M16
G05
G00X7.9115Y-2.1949
M15
G01X7.9123Y-2.1791
M16
G05
G00X8.1344Y-3.0215
M15
G01X8.1801Y-2.9726
M16
G05
G00X8.2282Y-1.5205
M15
G01X8.2738Y-1.4716
M16
G05
G00X8.2282Y-3.7705
M15
G01X8.2738Y-3.7216
M16
G05
G00X8.3802Y-2.9439
M15
G01X8.3811Y-2.9282
M16
G05
G00X8.4157Y-2.2705
M15
G01X8.4613Y-2.2216
M16
G05
G00X8.474Y-1.4449
M15
G01X8.4748Y-1.4291
M16
G05
G00X8.474Y-3.6949
M15
G01X8.4748Y-3.6791
M16
G05
G00X8.6615Y-2.1949
M15
G01X8.6623Y-2.1791
M16
G05
G00X8.9782Y-1.5205
M15
G01X9.0238Y-1.4716
M16
G05
G00X8.9782Y-3.0205
M15
G01X9.0238Y-2.9716
M16
G05
G00X8.9782Y-3.7705
M15
G01X9.0238Y-3.7216
M16
G05
G00X9.224Y-1.4449
M15
G01X9.2248Y-1.4291
M16
G05
G00X9.224Y-2.9449
M15
G01X9.2248Y-2.9291
M16
G05
G00X9.224Y-3.6949
M15
G01X9.2248Y-3.6791
M16
G05
G00X9.4469Y-2.2705
M15
G01X9.4926Y-2.2216
M16
G05
G00X9.6927Y-2.1949
M15
G01X9.6936Y-2.1791
M16
G05
G00X9.7282Y-1.5205
M15
G01X9.7738Y-1.4716
M16
G05
G00X9.7282Y-3.0205
M15
G01X9.7738Y-2.9716
M16
G05
G00X9.7282Y-3.7705
M15
G01X9.7738Y-3.7216
M16
G05
G00X9.974Y-1.4449
M15
G01X9.9748Y-1.4291
M16
G05
G00X9.974Y-2.9449
M15
G01X9.9748Y-2.9291
M16
G05
G00X9.974Y-3.6949
M15
G01X9.9748Y-3.6791
M16
G05
T0
M30
